<?xml version="1.0" encoding="UTF-8" standalone="no"?>
<!-- Created with Inkscape (http://www.inkscape.org/) -->

<svg
   xmlns:dc="http://purl.org/dc/elements/1.1/"
   xmlns:cc="http://creativecommons.org/ns#"
   xmlns:rdf="http://www.w3.org/1999/02/22-rdf-syntax-ns#"
   xmlns:svg="http://www.w3.org/2000/svg"
   xmlns="http://www.w3.org/2000/svg"
   xmlns:sodipodi="http://sodipodi.sourceforge.net/DTD/sodipodi-0.dtd"
   xmlns:inkscape="http://www.inkscape.org/namespaces/inkscape"
   width="16"
   height="16"
   id="svg4699"
   version="1.1"
   inkscape:version="0.48.4 r9939"
   sodipodi:docname="favicon.svg"
   inkscape:export-filename="C:\wamp\www\GeoCash\static\images\favicon.png"
   inkscape:export-xdpi="90"
   inkscape:export-ydpi="90">
  <defs
     id="defs4701" />
  <sodipodi:namedview
     id="base"
     pagecolor="#ffffff"
     bordercolor="#666666"
     borderopacity="1.0"
     inkscape:pageopacity="0.0"
     inkscape:pageshadow="2"
     inkscape:zoom="31.678384"
     inkscape:cx="9.5928187"
     inkscape:cy="6.7473688"
     inkscape:document-units="px"
     inkscape:current-layer="layer1"
     showgrid="false"
     inkscape:window-width="1366"
     inkscape:window-height="706"
     inkscape:window-x="-8"
     inkscape:window-y="-8"
     inkscape:window-maximized="1"
     fit-margin-top="10"
     fit-margin-left="10"
     fit-margin-right="10"
     fit-margin-bottom="10" />
  <metadata
     id="metadata4704">
    <rdf:RDF>
      <cc:Work
         rdf:about="">
        <dc:format>image/svg+xml</dc:format>
        <dc:type
           rdf:resource="http://purl.org/dc/dcmitype/StillImage" />
        <dc:title></dc:title>
      </cc:Work>
    </rdf:RDF>
  </metadata>
  <g
     inkscape:label="Layer 1"
     inkscape:groupmode="layer"
     id="layer1"
     transform="translate(5.8575844,-1008.2652)">
    <path
       style="fill:#3f94d0;fill-opacity:1;stroke:#3f94d0;stroke-width:0.39533353;stroke-linecap:butt;stroke-linejoin:miter;stroke-miterlimit:4;stroke-opacity:1;stroke-dasharray:none"
       d="m 35.39516,1007.2554 -0.02893,0.087 -0.404987,1.9381 -0.02893,0 -0.404987,2.0249 -0.08679,0 c -0.173777,-0.083 -0.367394,-0.1619 -0.578554,-0.2313 -0.219927,-0.072 -0.454096,-0.1476 -0.694264,-0.2025 -0.240179,-0.056 -0.500376,-0.084 -0.752119,-0.1157 -0.25175,-0.032 -0.474341,-0.058 -0.723192,-0.058 -0.439841,10e-5 -0.8735,0.061 -1.272816,0.1736 -0.399331,0.1128 -0.740459,0.292 -1.041396,0.5207 -0.263326,0.2 -0.494661,0.4297 -0.665336,0.7232 l 0,-0.9836 -0.02893,0 0.05786,-0.2025 -0.752119,0 -1.417455,0 -0.202494,0.5208 c -0.198571,-0.1978 -0.42602,-0.351 -0.665336,-0.4629 -0.356716,-0.1669 -0.731203,-0.2603 -1.128179,-0.2603 -0.431509,0 -0.817819,0.07 -1.186035,0.2313 -0.368215,0.1612 -0.713288,0.3835 -1.012467,0.6654 -0.09683,0.092 -0.171047,0.1878 -0.260349,0.2893 l 0.144638,-0.7811 c -0.300131,-0.1338 -0.648463,-0.2337 -1.070323,-0.3182 -0.421881,-0.084 -0.805407,-0.1447 -1.12818,-0.1447 -0.124764,0 -0.227388,0.018 -0.347131,0.029 l 0,8.7362 c 0.0438,-0.01 0.07257,-0.019 0.11571,-0.029 0.424698,-0.1018 0.781515,-0.196 1.070324,-0.3182 l 0.11571,-0.6075 c 0.05275,0.084 0.112192,0.1564 0.173567,0.2315 0.207117,0.2532 0.481868,0.4695 0.781046,0.6075 0.299171,0.1381 0.60957,0.2024 0.983541,0.2024 0.437253,0 0.902198,-0.1053 1.359601,-0.3182 0.403417,-0.1878 0.771266,-0.4941 1.128178,-0.8967 l 0.202494,0 c 0.07698,0.3287 0.223896,0.5909 0.433914,0.781 0.244515,0.2215 0.598543,0.3182 1.070324,0.3182 0.327938,0 0.684679,-0.012 1.041395,-0.086 l 0,-0.029 c 0.07306,0.019 0.151257,0.039 0.231422,0.058 0.228602,0.051 0.468541,0.1099 0.752119,0.1446 0.283572,0.034 0.578449,0.058 0.896757,0.058 0.567151,0 1.099106,-0.078 1.562095,-0.2024 0.462982,-0.1245 0.85036,-0.3009 1.186034,-0.5497 0.0652,-0.048 0.143442,-0.121 0.202493,-0.1735 l -0.202493,0.9256 1.677804,0 0.86783,0 0.433914,-2.0538 0.347133,-1.591 c 0.01467,-0.062 0.01478,-0.1492 0.02893,-0.2025 0.0307,-0.1156 0.08267,-0.1996 0.11571,-0.2893 0.03303,-0.089 0.05137,-0.1606 0.08679,-0.2314 0.03537,-0.071 0.07796,-0.1411 0.11571,-0.2025 0.120276,-0.1947 0.248226,-0.3746 0.404988,-0.5207 l 1.214961,0.3182 c -0.0039,0.062 0.01111,0.1249 0,0.2025 -0.01655,0.1157 -0.05848,0.2298 -0.08679,0.3761 l -0.867831,4.1944 1.677805,0 0.896758,0 0,-0.029 0.318204,0 0.98354,-4.8308 c 0.05074,-0.2538 0.105166,-0.4983 0.144638,-0.7522 0.03946,-0.2537 0.05786,-0.4857 0.05786,-0.6943 0,-0.014 1.23e-4,-0.015 0,-0.029 0.0089,-0.075 0.02029,-0.151 0.02893,-0.2314 0.04328,-0.4019 -0.03833,-0.7508 -0.144638,-1.0414 -0.02433,-0.1614 -0.05088,-0.3272 -0.115712,-0.4628 -0.103843,-0.2172 -0.252208,-0.3987 -0.433914,-0.5497 -0.181727,-0.1511 -0.369131,-0.2692 -0.607481,-0.3471 -0.238363,-0.078 -0.512017,-0.1157 -0.781047,-0.1157 -0.236001,0 -0.450587,0.03 -0.665336,0.087 -0.214762,0.057 -0.423412,0.1369 -0.607481,0.2314 -0.184082,0.095 -0.338382,0.1932 -0.491771,0.3182 -0.137873,0.1125 -0.270605,0.2541 -0.376059,0.3761 l 0.144638,-0.6943 c 0.02778,-0.1111 0.06897,-0.2259 0.08679,-0.3182 l 0.665336,-3.211 -1.677804,0 -0.867829,0 z m -35.58102387,3.5292 c -0.40184773,0 -0.78978663,0.055 -1.12817873,0.2025 -0.2685561,0.1175 -0.4944654,0.275 -0.7231916,0.4629 -0.091884,0.069 -0.2041918,0.1512 -0.2892766,0.2313 -0.2454357,0.2315 -0.4499782,0.4984 -0.6364086,0.81 -0.186444,0.3116 -0.3377658,0.6561 -0.4628425,1.0125 -0.042247,0.1203 -0.080478,0.2233 -0.1157106,0.3471 -0.1040852,0.3339 -0.2016745,0.6849 -0.2603491,1.0414 -0.071382,0.4336 -0.086783,0.8734 -0.086783,1.3017 0,0.1631 0.012187,0.3119 0.028928,0.463 -0.00255,0.076 -0.028928,0.1555 -0.028928,0.2313 0,0.3588 0.05494,0.691 0.1446383,0.9835 0.089681,0.2927 0.2350713,0.5445 0.4049873,0.7522 0.169916,0.2076 0.3620451,0.3496 0.6074808,0.4628 0.2454358,0.1133 0.5321056,0.1735 0.8389022,0.1735 0.024787,0 0.033305,0.01 0.057856,0 0.1531419,0.017 0.3275313,0.01 0.5206979,0 0.092469,-0.01 0.1599122,0 0.2314213,0 0.017387,6e-4 0.040213,0 0.057855,0 0.08968,0 0.1736221,0.01 0.2603489,0 -0.06359,0.083 -0.1295172,0.1612 -0.2024936,0.2315 -0.2006028,0.1936 -0.4352788,0.3371 -0.7231915,0.4339 -0.2879138,0.097 -0.635486,0.1447 -1.0413958,0.1447 -0.3351151,0 -0.6555125,-0.04 -0.9835405,-0.1157 -0.3280352,-0.076 -0.6377659,-0.1712 -0.9256852,-0.2893 l -0.2892766,1.3596 -0.2314213,1.0703 c 0.052499,0.021 0.1200503,0.038 0.173566,0.058 0.3539915,0.137 0.7246239,0.2544 1.1281788,0.3182 0.403554,0.064 0.8137689,0.087 1.2149617,0.087 0.1463154,0 0.2670759,-0.024 0.4049873,-0.029 0.1530972,0.01 0.3100899,0.029 0.4628425,0.029 0.5852687,0 1.111338,-0.066 1.56209377,-0.2024 0.45074963,-0.1369 0.82907148,-0.3556 1.15710653,-0.6365 0.328029,-0.2807 0.6194226,-0.6431 0.8389021,-1.0703 0.2194732,-0.4271 0.3737669,-0.8994 0.4917703,-1.4753 l 0.3471319,-1.6778 c 0.00683,0.023 0.021664,0.036 0.028928,0.058 0.1421169,0.4093 0.3436604,0.772 0.6364085,1.0704 0.2927473,0.2985 0.6791029,0.5294 1.1281788,0.6943 0.4490693,0.1648 0.9538537,0.2602 1.5620938,0.2602 0.5115965,0 0.994458,-0.055 1.446383,-0.1446 0.3963524,-0.078 0.7786595,-0.1704 1.0992511,-0.2892 l 0.3471321,-2.025 0.8678303,-4.8888 c -0.00319,-0.01 0.00401,-0.02 0,-0.029 -0.1364321,-0.2786 -0.3312818,-0.4981 -0.5785535,-0.6942 -0.247279,-0.1961 -0.5443298,-0.3549 -0.8967579,-0.4628 -0.3524472,-0.1081 -0.7483339,-0.1736 -1.1860341,-0.1736 -0.5002355,0 -0.962196,0.09 -1.3885277,0.2314 -0.4263438,0.1421 -0.8131996,0.3314 -1.1571064,0.5785 -0.3306501,0.2378 -0.6131473,0.5171 -0.8678299,0.8389 l 0.057856,-0.2603 0.2892766,-1.3018 -0.4049873,0 -1.4174553,0 -0.6942639,0 -0.028928,0.1447 -0.086783,0.2603 c -0.1607868,-0.1466 -0.331652,-0.2587 -0.52069789,-0.3471 -0.32782716,-0.1534 -0.67656835,-0.2314 -1.04139581,-0.2314 z"
       id="rect4658"
       inkscape:connector-curvature="0" />
    <path
       style="fill:#ffffff;fill-opacity:1;stroke:none"
       d="m 137.16088,111.97414 c -3.06206,-1.60111 -4.67132,-2.66455 -6.45038,-4.26259 -0.96156,-0.86373 -2.51472,-2.71307 -2.51472,-2.99427 0,-0.25732 0.15305,-1.11742 4.55315,-25.586697 1.73209,-9.632318 3.14926,-17.578058 3.14926,-17.657201 0,-0.09455 0.16238,-0.119882 0.47351,-0.07387 0.26043,0.03852 0.97069,0.107052 1.57836,0.152303 l 1.10486,0.08227 0,25.617687 c 0,14.089728 -0.0426,25.616788 -0.0947,25.615688 -0.0521,-10e-4 -0.86179,-0.40309 -1.79934,-0.89332 z"
       id="path3769"
       inkscape:connector-curvature="0"
       transform="translate(-5.8575844,874.38773)" />
    <path
       style="fill:#ffffff;fill-opacity:1;stroke:none"
       d=""
       id="path3771"
       inkscape:connector-curvature="0"
       transform="translate(-5.8575844,874.38773)" />
    <path
       style="fill:#ffffff;fill-opacity:1;stroke:none"
       d=""
       id="path3773"
       inkscape:connector-curvature="0"
       transform="translate(-5.8575844,874.38773)" />
    <path
       style="fill:#ffffff;fill-opacity:1;stroke:none"
       d="m 28.994367,34.045137 c -0.251624,-0.144319 -0.664005,-0.455326 -0.916402,-0.691126 l -0.458905,-0.428729 0.714398,-3.928571 c 0.39292,-2.160714 0.714899,-3.981463 0.71551,-4.046109 7.14e-4,-0.07537 0.0892,-0.107401 0.246645,-0.08929 l 0.245536,0.02825 0.02311,4.709822 c 0.01271,2.590401 -0.0074,4.709444 -0.04464,4.708984 -0.03726,-4.47e-4 -0.273627,-0.118918 -0.52525,-0.263237 z"
       id="path3775"
       inkscape:connector-curvature="0"
       transform="translate(-5.8575844,976.26522)" />
    <path
       style="font-size:120.02226257px;font-style:normal;font-variant:normal;font-weight:normal;font-stretch:normal;line-height:125%;letter-spacing:0px;word-spacing:0px;fill:#ffffff;fill-opacity:1;stroke:none;font-family:DotumChe;-inkscape-font-specification:DotumChe"
       d="m -0.2852968,1011.5615 c -0.3076785,0.014 -0.596435,0.081 -0.8607481,0.1963 -0.302079,0.1321 -0.5737954,0.316 -0.8192311,0.5474 -0.2454358,0.2313 -0.4629039,0.5002 -0.6493407,0.8117 -0.1864377,0.3114 -0.3430515,0.6479 -0.4681274,1.0042 -0.1250766,0.3563 -0.2194218,0.7265 -0.283144,1.1137 -0.063727,0.3871 -0.094377,0.7729 -0.094377,1.1551 0,0.3589 0.046203,0.6815 0.1359065,0.9741 0.089681,0.2927 0.2189279,0.5436 0.3888512,0.7513 0.169916,0.2076 0.3774748,0.3699 0.6229113,0.4832 0.2454358,0.1132 0.5199808,0.1699 0.8267775,0.1699 0.3587094,0 0.6964717,-0.079 1.00798502,-0.2341 0.31151325,-0.1557 0.58323047,-0.3907 0.8192304,-0.7022 l 0.0301731,0 c -0.0519167,0.1323 -0.10664859,0.3134 -0.15856029,0.5399 -0.08496,0.3823 -0.19110332,0.7176 -0.32089688,1.008 -0.12980078,0.2901 -0.29396078,0.5314 -0.49455059,0.7249 -0.2006028,0.1933 -0.44448836,0.3373 -0.73240116,0.434 -0.2879129,0.097 -0.6360512,0.1472 -1.041962,0.1472 -0.3351141,0 -0.6648563,-0.037 -0.992885,-0.1132 -0.3280354,-0.076 -0.6370183,-0.1726 -0.9249384,-0.2906 l -0.2906905,1.3817 c 0.3539916,0.1369 0.7327904,0.2345 1.1363453,0.2982 0.4035551,0.064 0.8068832,0.098 1.2080761,0.098 0.5852676,0 1.1008687,-0.071 1.55162496,-0.2077 0.45074311,-0.1369 0.84227964,-0.3458 1.17032096,-0.6266 0.32802867,-0.2809 0.59974518,-0.6338 0.81922548,-1.0608 0.2194732,-0.4272 0.3878776,-0.9268 0.505881,-1.5026 l 1.4383667,-6.9314 -1.4308131,0 -0.2453913,0.6795 -0.030173,0 c -0.2171176,-0.2926 -0.469964,-0.5086 -0.76259553,-0.6455 -0.2926367,-0.1369 -0.60303457,-0.2038 -0.92870745,-0.2038 -0.0448352,0 -0.0881771,0 -0.13213649,0 z m 7.3050895,0 c -0.4080979,0.014 -0.7839505,0.082 -1.128799,0.2 -0.3941195,0.1345 -0.7408362,0.3148 -1.038191,0.5437 -0.2973549,0.2288 -0.5516164,0.4959 -0.7663716,0.8003 -0.2147552,0.3045 -0.3916543,0.6262 -0.5285341,0.959 -0.1368807,0.3326 -0.2382976,0.6724 -0.3020206,1.0193 -0.063718,0.3469 -0.094378,0.6767 -0.094378,0.9929 0,0.4861 0.075473,0.8984 0.2265136,1.2382 0.1510331,0.3398 0.3538813,0.6196 0.6040348,0.8344 0.2501535,0.2147 0.5350819,0.3689 0.8607551,0.4682 0.3256721,0.099 0.6624879,0.1509 1.0117616,0.1509 0.4011929,0 0.7823538,-0.041 1.1363517,-0.1245 0.3539843,-0.083 0.6502301,-0.1728 0.8909545,-0.2719 l 0.3020141,-1.4724 c -0.3445561,0.1558 -0.6860884,0.2751 -1.0306382,0.3624 -0.3445569,0.089 -0.6766538,0.1322 -0.9928851,0.1322 -0.1887997,0 -0.365698,-0.024 -0.5285343,-0.069 -0.1628369,-0.044 -0.3010536,-0.1202 -0.4190505,-0.2265 -0.1179978,-0.1062 -0.2095125,-0.2487 -0.2755912,-0.4303 -0.066087,-0.1818 -0.1019366,-0.4068 -0.1019294,-0.6759 -6.4e-6,-0.1793 0.021215,-0.3807 0.056646,-0.6003 0.035432,-0.2194 0.092008,-0.4415 0.1698905,-0.6682 0.077879,-0.2265 0.1769375,-0.4459 0.3020132,-0.6607 0.1250768,-0.2146 0.2788611,-0.4063 0.460581,-0.5738 0.1817136,-0.1676 0.3949379,-0.3025 0.6380178,-0.4039 0.2430672,-0.1019 0.5190339,-0.1548 0.8305484,-0.1548 0.2029522,0 0.4308027,0.028 0.6833173,0.079 0.2525091,0.052 0.5077176,0.1358 0.7626016,0.2491 l 0.2831442,-1.3327 c -0.2501667,-0.1085 -0.5506561,-0.1958 -0.9022857,-0.2642 -0.3516349,-0.069 -0.6634546,-0.1019 -0.9324845,-0.1019 -0.059571,0 -0.1191325,0 -0.1774306,0 z m -6.86716276,1.3704 c 0.12743871,0 0.24395019,0.02 0.35487338,0.053 0.11091794,0.033 0.21374988,0.071 0.30579776,0.1208 0.0920343,0.049 0.17316656,0.1062 0.24161372,0.1699 0.068437,0.064 0.1236232,0.1274 0.1661131,0.1888 l -0.32844987,1.5365 c -0.14159844,0.6702 -0.34821654,1.1957 -0.62668815,1.5781 -0.18408103,0.2548 -0.39400244,0.4562 -0.6229099,0.6001 -0.22892098,0.1441 -0.45299488,0.2153 -0.67954778,0.2153 -0.2407179,0 -0.4261039,-0.095 -0.5511806,-0.2831 -0.1250832,-0.1888 -0.1887671,-0.4861 -0.1887607,-0.8873 -6.4e-6,-0.203 0.019793,-0.4223 0.052883,-0.6606 0.033026,-0.2384 0.08115,-0.4794 0.1472302,-0.7248 0.066079,-0.2455 0.1528757,-0.4846 0.2567202,-0.7135 0.1038318,-0.2289 0.2260079,-0.4308 0.3699675,-0.6079 0.1439596,-0.1771 0.3052911,-0.3166 0.48701099,-0.4229 0.18171237,-0.106 0.38879801,-0.1622 0.61535689,-0.1622 z"
       id="text4568"
       inkscape:connector-curvature="0" />
  </g>
</svg>
