<?xml version="1.0" encoding="UTF-8" standalone="no"?>
<!-- Created with Inkscape (http://www.inkscape.org/) -->

<svg
   xmlns:dc="http://purl.org/dc/elements/1.1/"
   xmlns:cc="http://creativecommons.org/ns#"
   xmlns:rdf="http://www.w3.org/1999/02/22-rdf-syntax-ns#"
   xmlns:svg="http://www.w3.org/2000/svg"
   xmlns="http://www.w3.org/2000/svg"
   xmlns:sodipodi="http://sodipodi.sourceforge.net/DTD/sodipodi-0.dtd"
   xmlns:inkscape="http://www.inkscape.org/namespaces/inkscape"
   width="407.69476"
   height="149.87749"
   id="svg4699"
   version="1.1"
   inkscape:version="0.48.4 r9939"
   sodipodi:docname="logo.svg"
   inkscape:export-filename="C:\wamp\www\GeoCash\static\images\logo.png"
   inkscape:export-xdpi="90"
   inkscape:export-ydpi="90">
  <defs
     id="defs4701" />
  <sodipodi:namedview
     id="base"
     pagecolor="#ffffff"
     bordercolor="#666666"
     borderopacity="1.0"
     inkscape:pageopacity="0.0"
     inkscape:pageshadow="2"
     inkscape:zoom="1.979899"
     inkscape:cx="276.10182"
     inkscape:cy="74.962556"
     inkscape:document-units="px"
     inkscape:current-layer="layer1"
     showgrid="false"
     inkscape:window-width="1366"
     inkscape:window-height="706"
     inkscape:window-x="-8"
     inkscape:window-y="-8"
     inkscape:window-maximized="1"
     fit-margin-top="10"
     fit-margin-left="10"
     fit-margin-right="10"
     fit-margin-bottom="10" />
  <metadata
     id="metadata4704">
    <rdf:RDF>
      <cc:Work
         rdf:about="">
        <dc:format>image/svg+xml</dc:format>
        <dc:type
           rdf:resource="http://purl.org/dc/dcmitype/StillImage" />
        <dc:title />
      </cc:Work>
    </rdf:RDF>
  </metadata>
  <g
     inkscape:label="Layer 1"
     inkscape:groupmode="layer"
     id="layer1"
     transform="translate(5.8575844,-874.38773)">
    <path
       style="fill:#3f94d0;fill-opacity:1;stroke:#3f94d0;stroke-width:3.27242351;stroke-linecap:butt;stroke-linejoin:miter;stroke-miterlimit:4;stroke-opacity:1;stroke-dasharray:none"
       d="m 341.47451,886.0241 -0.1524,0.68579 -3.35276,16.11614 -0.1905,0 -3.42897,16.61144 -0.83819,0 c -1.43843,-0.68572 -3.01455,-1.32994 -4.76245,-1.90498 -1.82046,-0.59874 -3.72694,-1.10691 -5.71495,-1.56209 -1.98811,-0.45502 -4.01211,-0.80323 -6.09594,-1.06679 -2.08392,-0.2634 -4.15036,-0.41902 -6.21024,-0.41909 -3.64082,7e-5 -7.13387,0.4756 -10.43929,1.40968 -3.30549,0.93422 -6.19567,2.33687 -8.68672,4.22906 -2.1797,1.65578 -3.99735,3.70525 -5.41014,6.13404 l 0,-8.15332 -0.2286,0 0.3429,-1.67638 -6.09594,0 0.038,-0.11424 -11.84898,0 -1.56208,4.30526 c -1.64366,-1.6382 -3.46731,-2.92144 -5.44825,-3.84806 -2.95275,-1.38104 -6.08648,-2.05731 -9.37251,-2.05738 -3.57185,7e-5 -6.85798,0.64776 -9.9059,1.98118 -3.04798,1.33355 -5.82928,3.19092 -8.30572,5.52444 -0.80157,0.75534 -1.54678,1.56014 -2.28598,2.40028 l 1.37165,-6.5913 c -2.48436,-1.1084 -5.46138,-2.00618 -8.95341,-2.70507 -3.49214,-0.69875 -6.58646,-1.06672 -9.25821,-1.06679 -4.73429,7e-5 -9.03995,0.6839 -12.95387,2.05738 -3.91399,1.37361 -7.37198,3.26328 -10.325,5.60065 -2.95307,2.3375 -5.48719,5.04482 -7.61992,8.15331 -0.17239,0.25126 -0.32798,0.50886 -0.4953,0.762 -0.15765,-0.49508 -0.31145,-0.97454 -0.49529,-1.44779 -1.29069,-3.32207 -3.1203,-6.09263 -5.48635,-8.26762 -2.36618,-2.17485 -5.21225,-3.77727 -8.53432,-4.87675 -3.32217,-1.09934 -7.0143,-1.67631 -11.12509,-1.67638 -6.40528,7e-5 -12.04062,1.29081 -16.91623,3.84806 -4.3421,2.27752 -8.05229,5.25394 -11.12509,8.91531 l -0.381,0 c -0.0344,-0.10339 -0.0667,-0.20767 -0.11423,-0.3048 -1.12936,-2.30558 -2.71567,-4.28202 -4.76246,-5.90544 -2.0469,-1.6233 -4.55024,-2.87777 -7.46752,-3.77186 -2.9174,-0.89396 -6.1685,-1.33341 -9.79161,-1.33349 -4.14079,8e-5 -7.977072,0.5763 -11.506084,1.75259 -3.529074,1.17641 -6.716263,2.79186 -9.563006,4.83865 -2.736992,1.96796 -5.168833,4.30795 -7.277029,6.97223 l 0.457196,-2.28598 0.03804,0 2.400276,-10.55359 -3.238469,0 -11.772784,0 -5.676844,0 -0.342897,1.10489 -0.761992,2.13357 c -1.330909,-1.21433 -2.778527,-2.20168 -4.343358,-2.93367 -2.713628,-1.2692 -5.590596,-1.90492 -8.610515,-1.90498 -3.326364,6e-5 -6.380919,0.60335 -9.182009,1.82878 -2.222976,0.9726 -4.27883,2.25545 -6.172139,3.80997 -0.760604,0.56503 -1.505518,1.16516 -2.209779,1.82878 -2.031642,1.91446 -3.828806,4.16507 -5.372047,6.74363 -1.543265,2.57865 -2.812723,5.31789 -3.848062,8.26762 -0.349489,0.99572 -0.660875,2.02333 -0.95249,3.04797 -0.861532,2.76319 -1.533646,5.62263 -2.019281,8.57242 -0.590867,3.58896 -0.914397,7.12275 -0.914391,10.66789 -2e-6,1.34997 0.0897,2.63558 0.228598,3.88616 -0.02076,0.62948 -0.0381,1.27704 -0.0381,1.90498 -5e-6,2.96932 0.362558,5.65482 1.104889,8.07712 0.742318,2.42234 1.831949,4.49118 3.238468,6.21024 1.4065,1.71907 3.11181,3.06279 5.143449,4.00046 2.03161,0.93768 4.31838,1.40969 6.857932,1.40969 0.204975,0 0.406481,-0.0319 0.609594,-0.038 1.26765,0.13349 2.706309,0.19078 4.305258,0.11424 0.765447,-0.0366 1.389254,-0.0721 1.981181,-0.11424 0.14408,0.004 0.273343,0.038 0.419095,0.038 0.742319,0 1.491876,-0.0718 2.209779,-0.1524 -0.526512,0.68877 -1.072316,1.36032 -1.676384,1.94308 -1.660491,1.60184 -3.67461,2.81852 -6.05784,3.61947 -2.383275,0.80091 -5.250534,1.18107 -8.610515,1.18108 -2.773964,-10e-6 -5.51418,-0.32738 -8.229519,-0.95249 -2.715351,-0.62512 -5.274771,-1.42354 -7.658025,-2.40027 l -2.400337,11.42991 -1.8668816,8.7629 c 0.4344271,0.168 0.8905071,0.3014 1.3334868,0.4572 l 0,0.076 c 2.9302318,1.133 6.0320428,1.949 9.3725078,2.4765 3.340454,0.5273 6.699261,0.8001 10.020201,0.8001 1.211157,0 2.3636,-0.044 3.505166,-0.1147 1.267267,0.077 2.545523,0.1147 3.809962,0.1147 4.844629,0 9.108388,-0.5815 12.839573,-1.7145 3.731129,-1.1331 6.961922,-2.857 9.677305,-5.1816 2.715307,-2.3247 5.003047,-5.2652 6.819833,-8.80099 1.816697,-3.53582 3.214167,-7.65398 4.190959,-12.42048 l 2.857471,-13.75397 c 0.05672,0.1752 0.09227,0.36021 0.152399,0.5334 1.17634,3.38789 2.986857,6.29259 5.410147,8.76291 2.423263,2.47033 5.50283,4.38848 9.22011,5.75305 3.717231,1.36456 8.071463,2.05738 13.106271,2.05738 4.234811,0 8.222451,-0.37556 11.963281,-1.10489 3.74074,-0.72933 7.10281,-1.68113 10.0202,-2.85748 l 1.71449,-8.30571 c 1.1316,2.08303 2.52825,3.88181 4.19095,5.41014 2.36611,2.17492 5.22638,3.81545 8.57242,4.91485 3.346,1.09941 7.02394,1.63829 11.08699,1.63829 6.40521,0 12.07865,-1.29074 16.95433,-3.84806 4.87558,-2.55732 8.9175,-5.98486 12.19188,-10.2869 0.49839,-0.65484 0.9865,-1.33399 1.44779,-2.01928 0.19379,0.56364 0.38096,1.10935 0.60959,1.63828 1.49996,3.47002 3.49733,6.30337 5.98164,8.49622 2.48429,2.19285 5.33811,3.78847 8.57242,4.80055 3.23426,1.01208 6.58961,1.52399 10.0583,1.52399 3.98423,0 7.76192,-0.41389 11.27749,-1.25729 3.51548,-0.84341 6.4485,-1.76919 8.83911,-2.78127 l 0.99059,-4.95296 c 0.43693,0.69617 0.90168,1.36028 1.40969,1.98118 1.71446,2.09547 3.80996,3.73378 6.28644,4.87676 2.47644,1.14297 5.24821,1.71448 8.34381,1.71448 3.61942,0 7.30083,-0.90488 11.08699,-2.66697 3.33936,-1.55419 6.49435,-4.01895 9.44871,-7.35323 l 1.71448,0 c 0.63719,2.72212 1.84288,4.90212 3.58137,6.47693 2.02397,1.83354 4.97197,2.74318 8.87721,2.74318 2.71452,0 5.54344,-0.29528 8.49622,-0.91439 l 0,-0.0762 c 0.60468,0.15709 1.20329,0.34409 1.86688,0.49529 1.89224,0.43114 3.97717,0.77936 6.32454,1.06679 2.34734,0.28743 4.87081,0.4191 7.50562,0.4191 4.69468,0 8.93093,-0.49403 12.76338,-1.52399 3.83237,-1.02996 7.16546,-2.58822 9.944,-4.64815 0.53972,-0.40015 1.03519,-0.82203 1.52398,-1.25729 l -1.56208,7.50563 13.83016,0 7.31513,0 3.50517,-16.84004 0.038,0 2.74317,-13.29677 c 0.12131,-0.51247 0.26378,-1.12032 0.381,-1.56208 0.25393,-0.95717 0.52657,-1.81031 0.80009,-2.55268 0.27346,-0.74229 0.54515,-1.3951 0.83819,-1.98118 0.29299,-0.58601 0.6018,-1.13034 0.91439,-1.63828 0.99556,-1.61186 2.13136,-3.01986 3.42897,-4.22906 l 10.1345,2.55268 c -0.0301,0.51104 -0.0605,1.07107 -0.1524,1.71448 -0.13679,0.95725 -0.33712,2.02734 -0.5715,3.23847 l -7.16273,34.59446 13.83017,0 7.31513,0 0,-0.038 2.59077,0 8.34388,-40.04277 c 0.41996,-2.10012 0.77812,-4.18623 1.10489,-6.28644 0.32662,-2.10011 0.49522,-4.02619 0.49529,-5.75304 0,-0.11655 10e-4,-0.22749 0,-0.3429 0.0739,-0.61664 0.11875,-1.20116 0.1905,-1.86688 0.35832,-3.32727 -0.18705,-6.20546 -1.06679,-8.61051 -0.20157,-1.33572 -0.53003,-2.57325 -1.06679,-3.69567 -0.85959,-1.79715 -2.03914,-3.32166 -3.54326,-4.57195 -1.50425,-1.25018 -3.24669,-2.21277 -5.21965,-2.85747 -1.97307,-0.6446 -4.05951,-0.95243 -6.28644,-0.95249 -1.95353,6e-5 -3.82301,0.21701 -5.60064,0.68579 -1.77771,0.4689 -3.42928,1.12364 -4.95296,1.90498 -1.52375,0.78145 -2.92122,1.66978 -4.19095,2.70507 -1.14124,0.93057 -2.13694,1.92428 -3.00987,2.93367 l 1.21918,-5.79114 c 0.22959,-0.91821 0.42434,-1.79017 0.5715,-2.55267 l 5.52444,-26.55544 -13.83016,0 -7.16273,0 z"
       id="rect4658"
       inkscape:connector-curvature="0" />
    <rect
       style="fill:#3f94d0;fill-opacity:1;stroke:none"
       id="rect4686"
       width="26.170774"
       height="50.186306"
       x="339.08997"
       y="939.14484" />
    <rect
       transform="matrix(1,0,-0.20687254,0.9783679,0,0)"
       y="929.07843"
       x="499.56177"
       height="85.44928"
       width="16.100134"
       id="rect4689"
       style="fill:#3f94d0;fill-opacity:1;stroke:none" />
    <text
       sodipodi:linespacing="125%"
       id="text4568"
       y="979.78815"
       x="14.650289"
       style="font-size:120.02226257px;font-style:normal;font-variant:normal;font-weight:normal;font-stretch:normal;line-height:125%;letter-spacing:0px;word-spacing:0px;fill:#ffffff;fill-opacity:1;stroke:none;font-family:DotumChe;-inkscape-font-specification:DotumChe"
       xml:space="preserve"><tspan
         style="font-style:oblique;font-variant:normal;font-weight:bold;font-stretch:normal;letter-spacing:-6.84126854px;fill:#ffffff;font-family:Corbel;-inkscape-font-specification:Corbel Bold Oblique"
         y="979.78815"
         x="14.650289"
         id="tspan4570"
         sodipodi:role="line">geocash</tspan></text>
    <rect
       transform="matrix(1,0,-0.20585359,0.9785828,0,0)"
       y="934.02002"
       x="502.82422"
       height="75.196556"
       width="6.2543783"
       id="rect2995"
       style="fill:#ffffff;fill-opacity:1;stroke:none" />
  </g>
</svg>
